<mxfile host="app.diagrams.net" modified="2023-05-24T06:55:14.083Z" agent="Mozilla/5.0 (Windows NT 10.0; Win64; x64) AppleWebKit/537.36 (KHTML, like Gecko) Chrome/113.0.0.0 Safari/537.36" etag="4jOEnZceSM2xfstcWisu" version="21.3.3" type="github">
  <diagram name="Page-1" id="VCz7oPfltiHlgymOwPRx">
    <mxGraphModel dx="1434" dy="756" grid="1" gridSize="10" guides="1" tooltips="1" connect="1" arrows="1" fold="1" page="1" pageScale="1" pageWidth="827" pageHeight="1169" math="0" shadow="0">
      <root>
        <mxCell id="0" />
        <mxCell id="1" parent="0" />
        <mxCell id="LRgczqT5B3kv9T-4MgHq-3" style="edgeStyle=orthogonalEdgeStyle;rounded=0;orthogonalLoop=1;jettySize=auto;html=1;exitX=0;exitY=0.5;exitDx=0;exitDy=0;entryX=1;entryY=0.5;entryDx=0;entryDy=0;" edge="1" parent="1" source="LRgczqT5B3kv9T-4MgHq-1" target="LRgczqT5B3kv9T-4MgHq-2">
          <mxGeometry relative="1" as="geometry" />
        </mxCell>
        <mxCell id="LRgczqT5B3kv9T-4MgHq-4" value="Guest" style="edgeLabel;html=1;align=center;verticalAlign=middle;resizable=0;points=[];" vertex="1" connectable="0" parent="LRgczqT5B3kv9T-4MgHq-3">
          <mxGeometry x="0.2091" y="-2" relative="1" as="geometry">
            <mxPoint x="23" y="2" as="offset" />
          </mxGeometry>
        </mxCell>
        <mxCell id="LRgczqT5B3kv9T-4MgHq-7" style="edgeStyle=orthogonalEdgeStyle;rounded=0;orthogonalLoop=1;jettySize=auto;html=1;exitX=1;exitY=0.5;exitDx=0;exitDy=0;entryX=0.5;entryY=0;entryDx=0;entryDy=0;" edge="1" parent="1" source="LRgczqT5B3kv9T-4MgHq-1" target="LRgczqT5B3kv9T-4MgHq-6">
          <mxGeometry relative="1" as="geometry" />
        </mxCell>
        <mxCell id="LRgczqT5B3kv9T-4MgHq-13" value="Signup" style="edgeLabel;html=1;align=center;verticalAlign=middle;resizable=0;points=[];" vertex="1" connectable="0" parent="LRgczqT5B3kv9T-4MgHq-7">
          <mxGeometry x="-0.08" y="-1" relative="1" as="geometry">
            <mxPoint as="offset" />
          </mxGeometry>
        </mxCell>
        <mxCell id="LRgczqT5B3kv9T-4MgHq-8" style="edgeStyle=orthogonalEdgeStyle;rounded=0;orthogonalLoop=1;jettySize=auto;html=1;exitX=0.5;exitY=1;exitDx=0;exitDy=0;entryX=0.5;entryY=0;entryDx=0;entryDy=0;" edge="1" parent="1" source="LRgczqT5B3kv9T-4MgHq-1" target="LRgczqT5B3kv9T-4MgHq-5">
          <mxGeometry relative="1" as="geometry" />
        </mxCell>
        <mxCell id="LRgczqT5B3kv9T-4MgHq-12" value="Login" style="edgeLabel;html=1;align=center;verticalAlign=middle;resizable=0;points=[];" vertex="1" connectable="0" parent="LRgczqT5B3kv9T-4MgHq-8">
          <mxGeometry x="-0.325" y="1" relative="1" as="geometry">
            <mxPoint as="offset" />
          </mxGeometry>
        </mxCell>
        <mxCell id="LRgczqT5B3kv9T-4MgHq-18" value="Non" style="edgeLabel;html=1;align=center;verticalAlign=middle;resizable=0;points=[];" vertex="1" connectable="0" parent="LRgczqT5B3kv9T-4MgHq-8">
          <mxGeometry x="0.65" relative="1" as="geometry">
            <mxPoint as="offset" />
          </mxGeometry>
        </mxCell>
        <mxCell id="LRgczqT5B3kv9T-4MgHq-1" value="Home Page" style="rounded=1;whiteSpace=wrap;html=1;" vertex="1" parent="1">
          <mxGeometry x="350" y="80" width="120" height="60" as="geometry" />
        </mxCell>
        <mxCell id="LRgczqT5B3kv9T-4MgHq-2" value="Vue PJ" style="whiteSpace=wrap;html=1;aspect=fixed;" vertex="1" parent="1">
          <mxGeometry x="50" y="70" width="80" height="80" as="geometry" />
        </mxCell>
        <mxCell id="LRgczqT5B3kv9T-4MgHq-9" style="edgeStyle=orthogonalEdgeStyle;rounded=0;orthogonalLoop=1;jettySize=auto;html=1;exitX=0;exitY=0.5;exitDx=0;exitDy=0;entryX=0.5;entryY=1;entryDx=0;entryDy=0;" edge="1" parent="1" source="LRgczqT5B3kv9T-4MgHq-5" target="LRgczqT5B3kv9T-4MgHq-2">
          <mxGeometry relative="1" as="geometry" />
        </mxCell>
        <mxCell id="LRgczqT5B3kv9T-4MgHq-10" value="Rejoindre" style="edgeLabel;html=1;align=center;verticalAlign=middle;resizable=0;points=[];" vertex="1" connectable="0" parent="LRgczqT5B3kv9T-4MgHq-9">
          <mxGeometry x="-0.3064" y="1" relative="1" as="geometry">
            <mxPoint as="offset" />
          </mxGeometry>
        </mxCell>
        <mxCell id="LRgczqT5B3kv9T-4MgHq-20" style="edgeStyle=orthogonalEdgeStyle;rounded=0;orthogonalLoop=1;jettySize=auto;html=1;exitX=0;exitY=0.75;exitDx=0;exitDy=0;entryX=0.5;entryY=0;entryDx=0;entryDy=0;" edge="1" parent="1" source="LRgczqT5B3kv9T-4MgHq-5" target="LRgczqT5B3kv9T-4MgHq-19">
          <mxGeometry relative="1" as="geometry" />
        </mxCell>
        <mxCell id="LRgczqT5B3kv9T-4MgHq-22" style="edgeStyle=orthogonalEdgeStyle;rounded=0;orthogonalLoop=1;jettySize=auto;html=1;exitX=0.5;exitY=1;exitDx=0;exitDy=0;entryX=0.5;entryY=0;entryDx=0;entryDy=0;" edge="1" parent="1" source="LRgczqT5B3kv9T-4MgHq-5" target="LRgczqT5B3kv9T-4MgHq-21">
          <mxGeometry relative="1" as="geometry" />
        </mxCell>
        <mxCell id="LRgczqT5B3kv9T-4MgHq-5" value="Dashboard" style="whiteSpace=wrap;html=1;aspect=fixed;" vertex="1" parent="1">
          <mxGeometry x="370" y="300" width="80" height="80" as="geometry" />
        </mxCell>
        <mxCell id="LRgczqT5B3kv9T-4MgHq-11" style="edgeStyle=orthogonalEdgeStyle;rounded=0;orthogonalLoop=1;jettySize=auto;html=1;exitX=0.5;exitY=1;exitDx=0;exitDy=0;entryX=1;entryY=0.5;entryDx=0;entryDy=0;" edge="1" parent="1" source="LRgczqT5B3kv9T-4MgHq-6" target="LRgczqT5B3kv9T-4MgHq-5">
          <mxGeometry relative="1" as="geometry" />
        </mxCell>
        <mxCell id="LRgczqT5B3kv9T-4MgHq-6" value="Crea compte" style="shape=trapezoid;perimeter=trapezoidPerimeter;whiteSpace=wrap;html=1;fixedSize=1;" vertex="1" parent="1">
          <mxGeometry x="500" y="170" width="120" height="60" as="geometry" />
        </mxCell>
        <mxCell id="LRgczqT5B3kv9T-4MgHq-16" style="edgeStyle=orthogonalEdgeStyle;rounded=0;orthogonalLoop=1;jettySize=auto;html=1;exitX=0;exitY=0.5;exitDx=0;exitDy=0;entryX=1;entryY=0.5;entryDx=0;entryDy=0;" edge="1" parent="1" source="LRgczqT5B3kv9T-4MgHq-14" target="LRgczqT5B3kv9T-4MgHq-15">
          <mxGeometry relative="1" as="geometry">
            <Array as="points">
              <mxPoint x="330" y="210" />
              <mxPoint x="330" y="210" />
            </Array>
          </mxGeometry>
        </mxCell>
        <mxCell id="LRgczqT5B3kv9T-4MgHq-17" value="Oui" style="edgeLabel;html=1;align=center;verticalAlign=middle;resizable=0;points=[];" vertex="1" connectable="0" parent="LRgczqT5B3kv9T-4MgHq-16">
          <mxGeometry x="-0.25" relative="1" as="geometry">
            <mxPoint as="offset" />
          </mxGeometry>
        </mxCell>
        <mxCell id="LRgczqT5B3kv9T-4MgHq-14" value="Admin ?" style="rhombus;whiteSpace=wrap;html=1;" vertex="1" parent="1">
          <mxGeometry x="370" y="170" width="80" height="80" as="geometry" />
        </mxCell>
        <mxCell id="LRgczqT5B3kv9T-4MgHq-15" value="dashboard admin" style="whiteSpace=wrap;html=1;aspect=fixed;" vertex="1" parent="1">
          <mxGeometry x="210" y="170" width="80" height="80" as="geometry" />
        </mxCell>
        <mxCell id="LRgczqT5B3kv9T-4MgHq-19" value="Settings" style="shape=trapezoid;perimeter=trapezoidPerimeter;whiteSpace=wrap;html=1;fixedSize=1;" vertex="1" parent="1">
          <mxGeometry x="150" y="390" width="120" height="60" as="geometry" />
        </mxCell>
        <mxCell id="LRgczqT5B3kv9T-4MgHq-28" style="edgeStyle=orthogonalEdgeStyle;rounded=0;orthogonalLoop=1;jettySize=auto;html=1;exitX=0.5;exitY=1;exitDx=0;exitDy=0;entryX=0.5;entryY=0;entryDx=0;entryDy=0;" edge="1" parent="1" source="LRgczqT5B3kv9T-4MgHq-21" target="LRgczqT5B3kv9T-4MgHq-27">
          <mxGeometry relative="1" as="geometry" />
        </mxCell>
        <mxCell id="LRgczqT5B3kv9T-4MgHq-30" style="edgeStyle=orthogonalEdgeStyle;rounded=0;orthogonalLoop=1;jettySize=auto;html=1;exitX=0;exitY=0.5;exitDx=0;exitDy=0;entryX=1;entryY=0.5;entryDx=0;entryDy=0;" edge="1" parent="1" source="LRgczqT5B3kv9T-4MgHq-21" target="LRgczqT5B3kv9T-4MgHq-26">
          <mxGeometry relative="1" as="geometry" />
        </mxCell>
        <mxCell id="LRgczqT5B3kv9T-4MgHq-31" style="edgeStyle=orthogonalEdgeStyle;rounded=0;orthogonalLoop=1;jettySize=auto;html=1;exitX=1;exitY=0.5;exitDx=0;exitDy=0;entryX=0;entryY=0.5;entryDx=0;entryDy=0;" edge="1" parent="1" source="LRgczqT5B3kv9T-4MgHq-21" target="LRgczqT5B3kv9T-4MgHq-23">
          <mxGeometry relative="1" as="geometry" />
        </mxCell>
        <mxCell id="LRgczqT5B3kv9T-4MgHq-32" style="edgeStyle=orthogonalEdgeStyle;rounded=0;orthogonalLoop=1;jettySize=auto;html=1;exitX=1;exitY=0.5;exitDx=0;exitDy=0;" edge="1" parent="1" source="LRgczqT5B3kv9T-4MgHq-21" target="LRgczqT5B3kv9T-4MgHq-24">
          <mxGeometry relative="1" as="geometry" />
        </mxCell>
        <mxCell id="LRgczqT5B3kv9T-4MgHq-21" value="Gestion de table" style="whiteSpace=wrap;html=1;aspect=fixed;" vertex="1" parent="1">
          <mxGeometry x="370" y="470" width="80" height="80" as="geometry" />
        </mxCell>
        <mxCell id="LRgczqT5B3kv9T-4MgHq-23" value="Créa lieux" style="shape=trapezoid;perimeter=trapezoidPerimeter;whiteSpace=wrap;html=1;fixedSize=1;" vertex="1" parent="1">
          <mxGeometry x="620" y="410" width="120" height="60" as="geometry" />
        </mxCell>
        <mxCell id="LRgczqT5B3kv9T-4MgHq-24" value="Créa event" style="shape=trapezoid;perimeter=trapezoidPerimeter;whiteSpace=wrap;html=1;fixedSize=1;" vertex="1" parent="1">
          <mxGeometry x="620" y="550" width="120" height="60" as="geometry" />
        </mxCell>
        <mxCell id="LRgczqT5B3kv9T-4MgHq-26" value="Créa perso" style="whiteSpace=wrap;html=1;aspect=fixed;" vertex="1" parent="1">
          <mxGeometry x="170" y="520" width="80" height="80" as="geometry" />
        </mxCell>
        <mxCell id="LRgczqT5B3kv9T-4MgHq-34" style="edgeStyle=orthogonalEdgeStyle;rounded=0;orthogonalLoop=1;jettySize=auto;html=1;exitX=0;exitY=0.5;exitDx=0;exitDy=0;entryX=1;entryY=0.5;entryDx=0;entryDy=0;" edge="1" parent="1" source="LRgczqT5B3kv9T-4MgHq-27" target="LRgczqT5B3kv9T-4MgHq-33">
          <mxGeometry relative="1" as="geometry" />
        </mxCell>
        <mxCell id="LRgczqT5B3kv9T-4MgHq-27" value="Vue MJ" style="whiteSpace=wrap;html=1;aspect=fixed;" vertex="1" parent="1">
          <mxGeometry x="370" y="660" width="80" height="80" as="geometry" />
        </mxCell>
        <mxCell id="LRgczqT5B3kv9T-4MgHq-33" value="Page perso" style="shape=trapezoid;perimeter=trapezoidPerimeter;whiteSpace=wrap;html=1;fixedSize=1;" vertex="1" parent="1">
          <mxGeometry x="150" y="670" width="120" height="60" as="geometry" />
        </mxCell>
      </root>
    </mxGraphModel>
  </diagram>
</mxfile>
